<?xml version="1.0" encoding="utf-8"?>
<!-- Generator: Adobe Illustrator 16.0.0, SVG Export Plug-In . SVG Version: 6.00 Build 0)  -->
<!DOCTYPE svg PUBLIC "-//W3C//DTD SVG 1.1//EN" "http://www.w3.org/Graphics/SVG/1.1/DTD/svg11.dtd">
<svg version="1.1" id="Calque_1" xmlns="http://www.w3.org/2000/svg" xmlns:xlink="http://www.w3.org/1999/xlink" x="0px" y="0px"
	 width="150px" height="37px" viewBox="0 0 150 37" enable-background="new 0 0 150 37" xml:space="preserve">
<g>
	<path fill="#FFFFFF" d="M18.724,0C8.494,0,0.199,8.293,0.199,18.524c0,10.231,8.294,18.527,18.525,18.527
		c10.231,0,18.526-8.295,18.526-18.527C37.25,8.293,28.956,0,18.724,0z M28.714,10.721c-0.858,0.03-1.45-0.482-1.477-1.261
		c-0.009-0.286,0.064-0.535,0.26-0.827c0.191-0.374,0.231-0.416,0.226-0.58c-0.016-0.49-0.757-0.509-0.96-0.5
		c-2.781,0.092-3.514,3.845-4.108,6.897l-0.291,1.609c1.601,0.234,2.738-0.055,3.371-0.465c0.893-0.579-0.249-1.175-0.106-1.834
		c0.147-0.673,0.758-0.996,1.244-1.01c0.679-0.016,1.165,0.689,1.15,1.405C28,15.337,26.43,16.963,23.29,16.898
		c-0.383-0.01-0.735-0.037-1.063-0.076l-0.593,3.27c-0.531,2.475-1.236,5.858-3.756,8.81c-2.165,2.574-4.362,2.974-5.346,3.007
		c-1.84,0.062-3.063-0.918-3.105-2.229c-0.043-1.268,1.079-1.962,1.816-1.986c0.982-0.033,1.662,0.678,1.688,1.499
		c0.024,0.695-0.337,0.912-0.577,1.043c-0.161,0.128-0.402,0.26-0.393,0.547c0.006,0.122,0.139,0.404,0.546,0.39
		c0.779-0.026,1.295-0.411,1.656-0.668c1.794-1.494,2.484-4.099,3.388-8.84l0.189-1.149c0.308-1.542,0.65-3.262,1.172-4.974
		c-1.266-0.952-2.023-2.131-3.723-2.593c-1.166-0.317-1.877-0.048-2.375,0.583c-0.593,0.748-0.396,1.721,0.177,2.293l0.944,1.044
		c1.158,1.338,1.791,2.378,1.553,3.78c-0.377,2.235-3.042,3.949-6.19,2.982c-2.688-0.829-3.191-2.732-2.867-3.78
		c0.284-0.923,1.017-1.097,1.734-0.876c0.768,0.235,1.068,1.168,0.848,1.886c-0.024,0.075-0.064,0.204-0.144,0.375
		c-0.09,0.198-0.254,0.371-0.326,0.603c-0.172,0.562,0.599,0.962,1.137,1.127c1.202,0.37,2.374-0.259,2.673-1.231
		c0.277-0.896-0.289-1.519-0.523-1.758l-1.138-1.219c-0.522-0.581-1.667-2.198-1.108-4.015c0.215-0.699,0.669-1.443,1.328-1.934
		c1.39-1.037,2.901-1.208,4.342-0.794c1.863,0.537,2.759,1.769,3.919,2.721c0.648-1.905,1.549-3.771,2.903-5.344
		c1.222-1.435,2.866-2.472,4.747-2.538c1.881-0.062,3.302,0.79,3.35,2.139C30.191,9.567,29.86,10.684,28.714,10.721z"/>
	<g>
		<g>
			<path fill="#FFFFFF" d="M112.521,13.312c4.271,0,7.135,3.086,7.135,7.356c0,4.022-2.919,7.356-7.135,7.356
				c-4.242,0-7.163-3.334-7.163-7.356C105.358,16.398,108.222,13.312,112.521,13.312z M112.521,25.932
				c3.03,0,4.379-2.755,4.379-5.264c0-2.671-1.625-5.261-4.379-5.261c-2.782,0-4.407,2.59-4.407,5.261
				C108.114,23.177,109.463,25.932,112.521,25.932z"/>
		</g>
		<path fill="#FFFFFF" d="M105.003,14.62v-0.978h-3.72v-1.336c0-1.902,0.275-3.335,2.507-3.335c0.041,0,0.083,0.003,0.125,0.004
			c0.005,0,0.004-0.006,0.01-0.006c0.619,0.045,1.134-0.459,1.17-1.078l0.045-0.849c-0.522-0.082-1.077-0.165-1.735-0.165
			c-3.83,0-4.713,2.231-4.713,5.648v1.116h-3.307v1.091c0.086,0.566,0.57,1,1.16,1c0.003,0,0.006,0.003,0.01,0.003h2.138v11.957
			h1.428c0.002,0,0.001,0,0.003,0c0.593,0,1.079-0.446,1.159-1.016V15.737h2.589C104.485,15.717,104.975,15.229,105.003,14.62z"/>
		<path fill="#FFFFFF" d="M70.506,13.643c-0.005,0-0.007,0.002-0.012,0.002c-0.548,0-1.074,0.375-1.305,0.883L65.625,25.27h-0.055
			l-3.486-10.737c-0.228-0.509-0.758-0.888-1.307-0.888c-0.006,0-0.008-0.002-0.013-0.002h-1.807l4.767,13.115
			c0.166,0.469,0.496,1.186,0.496,1.488c0,0.274-0.771,3.471-3.086,3.471c-0.057,0-0.116-0.008-0.172-0.011
			c-0.59-0.033-1.036,0.381-1.135,1.016l-0.07,0.896c0.468,0.083,0.938,0.193,1.765,0.193c3.415,0,4.434-3.114,5.4-5.813
			l5.18-14.355H70.506z"/>
		<path fill="#FFFFFF" d="M54.043,16.497c-2.14-1.094-4.479-1.837-4.52-4.039c0.006-2.339,2.154-2.953,3.811-2.95
			c0.007-0.002,0.015-0.002,0.017-0.002c0.72,0,1.294,0.072,1.856,0.195c0.006,0,0.006-0.009,0.016-0.009
			c0.594,0.043,1.09-0.421,1.16-1.006l0.048-0.849c-1.085-0.269-2.219-0.406-3.208-0.406c-3.602,0.022-6.274,1.834-6.283,5.291
			c0.006,3.022,2.043,4.194,4.233,5.254c2.148,1.034,4.503,1.887,4.523,4.382c-0.013,2.602-2.524,3.561-4.255,3.564
			c-1.012-0.003-2.11-0.255-3.036-0.548c-0.581-0.095-1.057,0.417-1.131,1.094l-0.079,0.758c1.273,0.411,2.578,0.77,3.889,0.77
			c0,0,0.002,0,0.005,0c0.004,0,0.006,0,0.013,0c4.033-0.03,7.167-1.639,7.179-5.814C58.275,18.958,56.224,17.604,54.043,16.497z"/>
		<path fill="#FFFFFF" d="M93.214,27.694c0.001,0,0.001,0,0.002,0c0.559,0,1.024-0.392,1.144-0.917v-8.091
			c0-3.059-1.294-5.374-4.878-5.374c-1.267,0-3.387,0.718-4.352,2.728c-0.743-1.901-2.369-2.728-3.995-2.728
			c-2.066,0-3.472,0.744-4.461,2.37h-0.057v-0.874c-0.007-0.643-0.529-1.163-1.173-1.163c-0.006,0-0.009-0.002-0.013-0.002h-1.238
			v14.051h1.403c0.001,0,0.001,0,0.001,0c0.65,0,1.176-0.527,1.176-1.174c0-0.018,0.005-0.025,0.009-0.036v-5.869
			c0-2.618,1.046-5.208,3.692-5.208c2.093,0,2.508,2.175,2.508,3.912v8.375h1.422c0.001,0,0.001,0,0.004,0
			c0.612,0,1.107-0.471,1.163-1.07v-6.009c0-2.618,1.048-5.208,3.691-5.208c2.094,0,2.508,2.175,2.508,3.912v8.375H93.214z"/>
		<path fill="#FFFFFF" d="M133.234,27.694c0.003,0,0.003,0,0.005,0c0.63,0,1.139-0.498,1.168-1.121v-7.227
			c0-3.773-1.627-6.034-5.263-6.034c-1.955,0-3.828,0.965-4.602,2.563h-0.053v-1.049c0-0.002-0.002-0.002-0.002-0.003
			c0-0.652-0.526-1.177-1.174-1.177c-0.006,0-0.009-0.002-0.014-0.002h-1.318v14.051h1.422c0,0,0,0,0.005,0
			c0.615,0,1.114-0.479,1.162-1.083v-5.419c0-3.417,1.325-5.785,4.271-5.785c2.26,0.137,2.975,1.735,2.975,5.013v7.274H133.234z"/>
		<path fill="#FFFFFF" d="M147.175,13.643c-0.002,0-0.005,0.002-0.012,0.002c-0.546,0-1.076,0.375-1.305,0.883l-3.563,10.742h-0.057
			l-3.485-10.737c-0.229-0.509-0.76-0.888-1.309-0.888c-0.004,0-0.008-0.002-0.012-0.002h-1.807l4.767,13.115
			c0.166,0.469,0.498,1.186,0.498,1.488c0,0.274-0.773,3.471-3.088,3.471c-0.059,0-0.114-0.008-0.173-0.011
			c-0.589-0.033-1.034,0.381-1.134,1.016l-0.069,0.896c0.467,0.083,0.938,0.193,1.763,0.193c3.416,0,4.437-3.114,5.401-5.813
			l5.18-14.355H147.175z"/>
	</g>
</g>
</svg>
