<?xml version="1.0" encoding="utf-8"?>
<!-- Generator: Adobe Illustrator 17.1.0, SVG Export Plug-In . SVG Version: 6.00 Build 0)  -->
<!DOCTYPE svg PUBLIC "-//W3C//DTD SVG 1.1//EN" "http://www.w3.org/Graphics/SVG/1.1/DTD/svg11.dtd">
<svg version="1.1" width="155px" height="55px" id="Calque_1" xmlns="http://www.w3.org/2000/svg" xmlns:xlink="http://www.w3.org/1999/xlink" x="0px" y="0px"
	 viewBox="0 0 155 45" style="enable-background:new 0 0 155 45;" xml:space="preserve">
<style type="text/css">
	.st0{fill:#303030;}
	.st1{fill:#7ABA20;}
</style>
<g>
	<path class="st0" d="M4.6,27.1c-1.1,0.5-1.9,1.7-3.4,0.9c-1.4-0.7-1.4-2.7-1-4c0.4-1.3,1.4-2.5,2.7-3.1c0.7-0.3,1.5-0.3,2.3-0.1
		c0.6,0.2,0.7,0.3,1.3,0.2c0.5-0.1,0.9-0.4,0.8,0.2c-0.2,0.8-0.4,1.7-0.6,2.5c-0.1,0.6-0.3,1.3-0.4,1.9c-0.1,0.4-0.3,1-0.1,1.5
		c0.2,0.5,1.1,0.3,1.5,0.1c-0.1,0.6-0.7,0.8-1.3,0.9C5.5,28.3,4.6,28,4.6,27.1z M5.6,22.4c0-0.8-0.5-1.3-1.3-1.3
		c-1,0-1.8,0.9-2.2,1.8c-0.6,1.1-1.3,4.9,1,4.5C5.2,27,5.2,24.1,5.6,22.4z"/>
	<path class="st0" d="M14.5,24.7c0.2,1.3,1.1,1.8,2.3,1.8c1,0,2.6-0.3,2.3-1.7c-0.2-0.9-1.7-1-2.4-1.2c-1-0.2-2.2-0.4-3-1
		c-2.2-1.5-0.9-4.8,1.3-5.5c2.5-0.8,5.9,0.2,6,3.3c-0.7,0-1.4,0-2.1,0c0,0-0.5-1.1-0.7-1.3c-0.6-0.4-1.5-0.5-2.2-0.3
		c-1.5,0.3-1.7,1.9-0.2,2.3c0.9,0.3,1.8,0.5,2.7,0.7c1.2,0.3,2.5,0.8,2.8,2.1c0.4,1.5-0.3,3-1.7,3.8c-2.6,1.4-7.2,0.4-7.2-3.1
		C13,24.7,13.7,24.7,14.5,24.7z"/>
	<path class="st0" d="M27.1,20.2c1.4,0.6,2,2.1,2.1,3.5c0,0.3,0.2,0.9-0.2,0.9c-0.3,0-0.7,0-1,0c-1.5,0-3.1,0-4.6,0
		c0.1,1.6,2.1,2.8,3.3,1.5c0.4-0.5,0.5-0.4,1.1-0.4c0.4,0,0.8,0,1.3,0c-0.2,1.6-2,2.5-3.5,2.6c-1.7,0.1-3.5-0.7-4.1-2.4
		c-0.5-1.5-0.4-3.5,0.7-4.8C23.4,19.8,25.5,19.5,27.1,20.2C27.7,20.5,26.6,20,27.1,20.2z M24,22c-0.3,0.3-0.5,0.8-0.6,1.2
		c1.2,0,2.4,0,3.6,0C26.9,21.8,25.1,20.9,24,22z"/>
	<path class="st0" d="M36,20.5c1.1,0.9,0.8,2.7,0.8,4c0,0.8,0,1.5,0,2.3c0,0.2,0.1,1.1,0,1.3c-0.2,0.2-1.4,0-1.7,0
		c-0.6,0-0.4,0-0.4-0.6c0-1.4,0-2.7,0-4.1c0-0.7-0.1-1.4-0.8-1.7c-1.4-0.4-2.2,0.8-2.2,2c0,1.2,0,2.5,0,3.7c0,0.5,0.2,0.6-0.3,0.6
		c-0.1,0-1.8,0-1.8,0c0-1.1,0-2.1,0-3.2c0-1.5,0-3.1,0-4.6c0-0.4,1.1-0.2,1.4-0.2c0.1,0,0.6,0,0.6,0c0,0.4,0,0.7,0,1.1
		C32.5,19.8,34.5,19.3,36,20.5C36.5,20.9,35.4,20.1,36,20.5z"/>
	<path class="st0" d="M39.5,25.5c0.1,1,0.8,1.2,1.7,1.2c0.6,0,2.1-0.6,1.1-1.3c-1.3-0.8-3.5-0.4-4.4-1.9c-1-1.8,0.7-3.5,2.4-3.7
		c2-0.2,4,0.4,4.2,2.6c-0.5,0-1.1,0-1.6,0c-0.4,0-0.4,0.1-0.5-0.2c-0.1-0.5-0.6-0.7-1-0.8c-0.5-0.1-1.1-0.1-1.4,0.3
		c-0.3,0.3-0.1,0.8,0.3,0.9c1,0.4,2.1,0.4,3.1,0.8c2.3,1,1.8,4-0.5,4.6c-2.1,0.6-5.3,0.1-5.3-2.6C38.1,25.5,38.8,25.5,39.5,25.5z"/>
	<path class="st0" d="M47.7,19.1c-0.7,0-1.4,0-2.1,0c0,0-0.2-1.8,0-1.9c0.2-0.2,1.7,0,2.1,0C47.7,17.2,47.7,18.9,47.7,19.1z
		 M45.6,20c0.3,0,2.1-0.1,2.1,0.1c0,0.8,0,1.6,0,2.4c0,1.2,0,2.4,0,3.7c0,0.3,0.2,1.7,0,1.9c-0.2,0.2-2.1,0-2.1-0.1
		c0-0.8,0-1.6,0-2.4C45.6,23.7,45.6,21.9,45.6,20z"/>
	<path class="st0" d="M55.6,27.1c-1.3,1.6-4.3,1.7-5.8,0.4c-1.7-1.6-1.8-4.6-0.3-6.4c1.3-1.6,4.3-1.7,5.8-0.4
		C57,22.3,57,25.3,55.6,27.1C54.9,27.9,56.3,26.2,55.6,27.1z M53.9,25.9c0.7-0.9,0.7-2.5,0.1-3.5c-0.6-1-2.2-1.2-2.9-0.2
		c-0.7,0.9-0.7,2.5-0.1,3.5C51.6,26.7,53.2,26.9,53.9,25.9z"/>
	<path class="st1" d="M57.5,17.2c0.6,0,1.2,0,1.8,0c0.5,0,0.5-0.1,0.5,0.3c0,1.3,0,2.7,0,4c0,1.4,0,2.7,0,4.1c0,0.1-0.1,0.4,0.1,0.4
		c0.6,0,1.2,0,1.7,0c0.8,0,1.5,0,2.3,0c0.2,0,1.2-0.1,1.3,0c0.2,0.2,0,1.4,0,1.7c0,0.3-0.3,0.2-0.6,0.2c-0.6,0-7,0-7,0
		C57.5,24.4,57.5,20.8,57.5,17.2z"/>
	<path class="st1" d="M68.9,23.2c0.6-0.1,1.8-0.4,1.1-1.3c-0.4-0.5-1.8-0.5-2.3,0c-0.5,0.6-0.1,0.7-0.9,0.7c-0.5,0-0.9,0-1.4,0
		c0.2-2.7,3.1-3.3,5.3-2.5c1.8,0.6,1.6,2.3,1.6,3.8c0,0.6,0,1.3,0,1.9c0,0.3,0,0.7,0,1c0,0.2,0,0.4,0.1,0.6c0.1,0.1,0.3,0.2,0.3,0.3
		c0,0.4-0.9,0.2-1.3,0.2c-0.9,0-1.1,0.1-1.1-0.9c-1.5,1.7-5,1.7-5-1.2C65.2,23.7,67.2,23.4,68.9,23.2z M70.2,24.1
		c-0.7,0.5-3.9,0.5-2.7,2.2c0.5,0.8,2,0.3,2.4-0.4C70.3,25.5,70.2,24.8,70.2,24.1z"/>
	<path class="st1" d="M80.2,21c1.2,1.6,1.2,4.1,0.2,5.8c-1.1,1.8-3.7,2-5,0.2c0,0.1,0,1,0,1c-0.5,0-0.9,0-1.4,0
		c-0.8,0-0.7,0-0.7-0.7c0-2.2,0-4.5,0-6.7c0-0.9,0-1.8,0-2.7c0-0.8,0-0.6,0.8-0.6c0.2,0,1.1-0.1,1.2,0c0.1,0.1,0,0.9,0,1.1
		c0,0.9,0,1.9,0,2.8C76.5,19.5,79,19.5,80.2,21z M78.4,25.9c0.6-0.9,0.6-2.4,0.1-3.4c-0.5-1-2.1-1.1-2.7-0.2
		c-0.7,0.9-0.6,2.4-0.2,3.3C76.2,26.7,77.7,26.9,78.4,25.9z"/>
	<path class="st1" d="M83.4,25.5c0.1,1,0.8,1.2,1.7,1.2c0.6,0,2.1-0.6,1.1-1.3c-1.3-0.8-3.5-0.4-4.4-1.9c-1-1.8,0.7-3.5,2.4-3.7
		c2-0.2,4,0.4,4.2,2.6c-0.5,0-1.1,0-1.6,0c-0.4,0-0.4,0.1-0.5-0.2c-0.1-0.5-0.6-0.7-1-0.8c-0.5-0.1-1.1-0.1-1.4,0.3
		c-0.3,0.3-0.1,0.8,0.3,0.9c1,0.4,2.1,0.4,3.1,0.8c2.3,1,1.8,4-0.5,4.6c-2.1,0.6-5.3,0.1-5.3-2.6C82,25.5,82.7,25.5,83.4,25.5z"/>
	<path class="st0" d="M101.6,19.7c0,1.8-1.5,3.1-3.2,3.6c-0.2,0-2.6,0.1-2.6,0.2c-0.2,0.8-0.4,1.7-0.6,2.5c-0.1,0.2-0.1,0.5-0.2,0.8
		c-0.1,0.8,0.8,0.7,1.3,0.8c-0.1,0.4,0,0.5-0.4,0.5c-0.5,0-1.1,0-1.6,0c-0.9,0-1.7,0-2.6,0c0.1-0.3,0-0.5,0.3-0.5
		c0.4,0,0.9,0,1.2-0.4c0.2-0.2,0.2-0.6,0.3-0.8c0.2-1,0.5-2.1,0.7-3.1c0.3-1.1,0.5-2.3,0.8-3.4c0.1-0.2,0.1-0.5,0.2-0.7
		c0.2-0.8-0.6-0.9-1.2-1c0.1-0.6,0.2-0.5,0.9-0.5c0.8,0,1.6,0,2.4,0C98.9,17.6,101.6,17.5,101.6,19.7z M99.3,21.7
		c0.8-1.2,0.8-3.3-1-3.5c-0.5-0.1-1.2-0.3-1.4,0.3c-0.3,1.4-0.7,2.9-1,4.3C97.2,22.8,98.5,22.8,99.3,21.7
		C99.5,21.4,99,22.1,99.3,21.7z"/>
	<path class="st0" d="M108.1,21.8c0,0.6-0.3,1.3-1,1.3c-1.1,0-0.7-1.1-0.5-1.7c-0.7,0-2.1,0.8-2.2,1.5c-0.2,0.8-0.4,1.6-0.5,2.4
		c-0.2,0.8-0.4,1.7-0.6,2.5c-0.1,0.5-1,0.2-1.4,0.2c0.3-1.2,0.5-2.4,0.8-3.6c0.1-0.5,0.2-0.9,0.3-1.4c0.3-1.3,0-1.7-1.4-1.4
		c0.2-0.7,0.7-0.8,1.4-0.9c1-0.2,1.6,0.2,1.6,1.2c0.6-0.4,1.2-1.2,2-1.3C107.5,20.5,108.1,21,108.1,21.8z"/>
	<path class="st0" d="M115.6,23.5c0,1.9-1.1,4-3.1,4.6c-2,0.6-4-0.5-4-2.7c0-2,1.1-3.9,3.1-4.5C113.7,20.2,115.6,21.3,115.6,23.5z
		 M114.1,23.2c0-1.5-1.1-2.8-2.6-1.7c-1.2,0.8-1.5,2.7-1.5,4.1c0,1.5,1.1,2.9,2.6,1.7C113.8,26.4,114.1,24.6,114.1,23.2z"/>
	<path class="st0" d="M121.3,27c-1,0.5-1.6,1.5-2.9,1.1c-1.4-0.3-1.8-1.9-1.7-3.2c0.2-2.8,3.2-5.6,6-3.9c0.2-0.7,0.3-1.4,0.5-2.1
		c0.1-0.3,0.2-0.6,0.2-0.9c0-0.8-0.9-0.7-1.4-0.7c0-0.7,0.6-0.5,1.1-0.5c0.3,0,1.7-0.3,2-0.1c0.3,0.3-0.5,2.6-0.6,3
		c-0.4,1.6-0.8,3.3-1.1,4.9c-0.1,0.3-0.2,0.6-0.2,1c-0.1,0.4-0.4,1.3,0,1.6c0.3,0.3,1,0.1,1.4,0c-0.2,0.7-0.7,0.8-1.4,0.9
		C122.1,28.3,121.3,28,121.3,27z M122.3,22.4c-0.1-0.8-0.9-1.3-1.7-1.2c-0.9,0.1-1.6,1-1.9,1.8c-0.5,1.1-1.3,4.9,1.1,4.5
		C122,27,121.9,24.1,122.3,22.4z"/>
	<path class="st0" d="M129.9,27c-1,0.6-2.1,1.7-3.4,1.1c-1-0.5-0.8-1.8-0.5-2.6c0.2-0.7,0.3-1.4,0.5-2.1c0.1-0.4,0.3-1,0.1-1.5
		c-0.2-0.5-1.1-0.2-1.4-0.1c0.3-1.3,3.2-1.5,2.9,0.4c-0.1,1-0.5,2.1-0.7,3.1c-0.1,0.6-0.4,1.6,0.2,2c0.6,0.4,2.3-0.2,2.5-0.9
		c0.2-1,0.5-2,0.7-3c0.1-0.6,0.3-1.1,0.4-1.7c0-0.1,0.1-0.6,0.2-0.8c0.1-0.1,1.2-0.1,1.3-0.1c0.2,0.2,0,0.6-0.1,0.8
		c-0.3,1.2-0.5,2.4-0.8,3.6c-0.1,0.4-0.2,0.9-0.3,1.3c-0.1,1,0.8,1,1.5,0.7c-0.2,0.7-0.7,0.8-1.4,0.9C130.8,28.3,129.9,28,129.9,27z
		"/>
	<path class="st0" d="M136.6,28.2c-3.9,0-3.2-5.5-0.7-7c1.1-0.7,3.4-1,4,0.5c0.7,1.9-2,2.2-1.6,0.7c0.1-0.3,0.2-0.6,0.3-0.9
		c-0.1-0.3-0.6-0.4-0.9-0.4c-0.8,0-1.3,0.5-1.7,1.2c-0.7,1.2-1.2,3.3-0.3,4.5c1.1,1.4,2.8,0.2,3.6-0.8c0,0,0.4,0.3,0.4,0.3
		c-0.2,0.4-0.5,0.7-0.8,1C138.3,27.8,137.5,28.2,136.6,28.2z"/>
	<path class="st0" d="M142.4,28.2c-2,0-1.2-2.1-0.9-3.3c0.3-1.1,0.5-2.3,0.8-3.4c-0.4,0-0.9,0-1.3,0c0.1-0.6,0.1-0.7,0.7-0.7
		c0.6,0,0.7,0.1,0.9-0.4c0.1-0.6,0.3-1.1,0.4-1.7c0-0.1,1.2,0,1.3,0c-0.2,0.7-0.3,1.4-0.5,2.1c0.7,0,1.4,0,2,0c0,0.2,0,0.7-0.2,0.7
		c-0.5,0-1,0-1.5,0c-0.2,0-0.4-0.1-0.5,0.1c-0.1,0.4-0.2,0.8-0.3,1.2c-0.2,0.9-0.4,1.8-0.6,2.7c-0.1,0.4-0.2,0.9-0.2,1.3
		c0.2,0.8,1.4,0.6,2,0.4c-0.1,0.4,0,0.5-0.5,0.7C143.6,28,143,28.2,142.4,28.2z"/>
</g>
</svg>
